<svg width="57" height="66" viewBox="0 0 57 66" fill="none" xmlns="http://www.w3.org/2000/svg">
<path d="M2.88835 0H54.1104C55.8062 0 57.1364 1.45206 56.9888 3.14098L52.2481 57.3135C52.1452 58.4944 51.3299 59.4933 50.1936 59.8315L30.1737 65.789C29.6588 65.9418 29.1113 65.9487 28.5912 65.8079L6.97335 59.9327C5.80621 59.6152 4.96003 58.606 4.85361 57.4011L0.0116902 3.14613C-0.139352 1.45549 1.19256 0 2.88835 0Z" fill="#1F525B"/>
<path opacity="0.5" d="M51.9941 8.36737L48.0842 53.0431C47.9984 54.0163 47.3273 54.8402 46.3901 55.1183L29.8802 60.0323C29.4546 60.1593 29.0032 60.1644 28.5758 60.0477L28.4985 60.0271V5.77734H49.6204C51.0175 5.77734 52.116 6.97538 51.9941 8.36737Z" fill="#2B2B2B"/>
<path opacity="0.7" d="M39.7185 50.3793H47.1762L46.8844 12.8111L28.1484 38.5843L9.8208 12.8111V50.3793L16.8391 50.3261L16.9249 34.3534L28.1484 49.9811L39.8043 33.4043L39.7185 50.3793Z" fill="white"/>
</svg>
